<svg width="68" height="66" viewBox="0 0 68 66" fill="none" xmlns="http://www.w3.org/2000/svg">
<path d="M21.4213 20.0724C20.7428 20.3425 20.2386 20.5218 19.9089 20.6101C19.5792 20.6985 19.2495 20.7868 18.9198 20.8752C16.3646 21.5598 13.6166 21.8544 10.6757 21.759C7.74581 21.7048 4.87185 21.2822 2.05379 20.4913L2.08747 14.1878C4.74284 14.5364 7.26866 14.5664 9.66492 14.2777C12.031 14.0413 14.0795 13.6911 15.8105 13.2273C16.305 13.0948 16.9177 12.9086 17.6485 12.6686C18.3903 12.4698 18.9412 12.3001 19.301 12.1595L21.4213 20.0724ZM40.5654 15.6053C39.123 15.9918 37.8159 15.812 36.6442 15.0658C35.4835 14.3609 34.721 13.3284 34.3566 11.9683C33.9811 10.5671 34.1197 9.27107 34.7724 8.08023C35.4251 6.88939 36.4727 6.10072 37.9151 5.71422C39.3576 5.32771 40.6591 5.48694 41.8198 6.19189C43.0217 6.8858 43.8104 7.93337 44.1858 9.3346C44.5502 10.6946 44.3855 11.9756 43.6916 13.1775C43.0499 14.4095 42.0079 15.2188 40.5654 15.6053ZM62.1158 31.7404C63.7833 37.9636 63.9254 43.0273 62.5422 46.9317C61.1699 50.8773 58.0729 53.4961 53.251 54.7882C50.737 55.4618 48.4518 55.5882 46.3955 55.1674C44.3915 54.7768 42.5861 53.8912 40.9794 52.5107C39.4139 51.1191 38.0374 49.2793 36.8501 46.9913C35.6628 44.7033 34.6496 41.9932 33.8103 38.8611L32.7667 34.9665L17.6828 39.0082L15.5957 31.219L57.8183 19.9055C58.7163 21.6084 59.5198 23.5354 60.2287 25.6866C60.9898 27.8679 61.6189 29.8859 62.1158 31.7404ZM55.5266 34.1023C54.9965 32.1241 54.4985 30.5128 54.0326 29.2683L39.4432 33.1775L40.4537 36.9485C41.4586 40.6988 42.7467 43.4457 44.3182 45.1891C45.9308 46.9214 48.2002 47.3955 51.1263 46.6115C52.5275 46.236 53.6303 45.6534 54.4346 44.8636C55.239 44.0739 55.782 43.1333 56.0638 42.0418C56.3456 40.9504 56.4128 39.7176 56.2655 38.3436C56.1705 36.9997 55.9242 35.586 55.5266 34.1023Z" fill="white"/>
</svg>
